<svg version="1.1" id="Layer_1" xmlns="http://www.w3.org/2000/svg" xmlns:xlink="http://www.w3.org/1999/xlink" x="0px" y="0px" width="16px" height="16px" viewBox="0 0 16 16" enable-background="new 0 0 16 16" xml:space="preserve">
  <g id="main">
    <g id="icon">
      <path d="M8.618,0.1037L8.099,0.2475L7.628,0.4877L7.217,0.8129L6.877,1.212L6.62,1.672L6.457,2.183L6.4,2.733L6.428,3.118L6.508,3.487L6.638,3.834L6.812,4.157L7.28,4.712L7.566,4.937L7.882,5.122L7.968,5.201L8,5.312L8.008,5.893L7.977,5.969L7.901,6L7.075,6.008L6.657,6.092L6.315,6.323L6.085,6.664L6,7.083L5.992,8.501L5.961,8.577L5.885,8.608L5.246,8.6L5.135,8.569L5.056,8.483L4.863,8.155L4.627,7.86L4.352,7.6L4.042,7.382L3.701,7.209L3.335,7.085L2.947,7.015L2.542,7.003L2.041,7.074L1.573,7.235L1.149,7.477L0.7773,7.789L0.4674,8.163L0.2285,8.589L0.07031,9.057L0.001953,9.559L0.0373,10.12L0.1809,10.63L0.4209,11.11L0.7461,11.52L1.145,11.86L1.605,12.11L2.117,12.28L2.667,12.33L3.052,12.31L3.421,12.23L3.768,12.1L4.091,11.92L4.646,11.45L4.871,11.17L5.056,10.85L5.135,10.77L5.246,10.73L5.885,10.74L5.961,10.77L5.992,10.85L5.992,13.93L6.077,14.35L6.307,14.69L6.649,14.92L7.068,15.01L9,15.01L9,14L7.3,14L7.038,13.97L6.794,13.9L6.381,13.62L6.102,13.21L6.026,12.96L6,12.7L6,10.3L6.026,10.04L6.102,9.794L6.381,9.381L6.794,9.102L7.038,9.026L7.3,9L9,9L9,7.3L9.026,7.038L9.102,6.794L9.381,6.381L9.794,6.102L10.04,6.026L10.3,6L10.25,6L10.17,5.969L10.14,5.893L10.13,5.312L10.16,5.201L10.25,5.122L10.58,4.929L10.87,4.693L11.13,4.418L11.35,4.108L11.52,3.767L11.65,3.401L11.72,3.013L11.73,2.608L11.66,2.107L11.5,1.639L11.26,1.215L10.94,0.8434L10.57,0.5334L10.14,0.2945L9.675,0.1363L9.174,0.06797zM9.523,1.652L9.896,1.904L10.15,2.276L10.24,2.733L10.15,3.19L9.896,3.563L9.523,3.814L9.066,3.906L8.61,3.814L8.237,3.563L7.985,3.19L7.893,2.733L7.985,2.276L8.237,1.904L8.609,1.652L9.066,1.56zM12.96,6.026L13.21,6.102L13.62,6.381L13.9,6.794L13.97,7.038L14,7.3L14,9L15.01,9L15.01,7.076L14.92,6.657L14.69,6.315L14.35,6.085L13.93,6L12.7,6zM3.124,8.586L3.496,8.838L3.748,9.21L3.84,9.667L3.748,10.12L3.496,10.5L3.124,10.75L2.667,10.84L2.21,10.75L1.838,10.5L1.586,10.12L1.494,9.667L1.586,9.21L1.838,8.838L2.21,8.586L2.667,8.494zM14,14.99L14.34,14.92L14.69,14.69L14.92,14.34L14.99,14L14,14zz" fill="#cfcfcf"/>
    </g>
    <g id="overlay">
      <path d="M15.7,10h-2.7V7.3c0,-0.166,-0.134,-0.3,-0.3,-0.3h-2.4c-0.166,0,-0.3,0.134,-0.3,0.3v2.7H7.3c-0.166,0,-0.3,0.134,-0.3,0.3v2.4c0,0.166,0.134,0.3,0.3,0.3h2.7v2.7c0,0.166,0.134,0.3,0.3,0.3h2.4c0.166,0,0.3,-0.134,0.3,-0.3v-2.7h2.7c0.166,0,0.3,-0.134,0.3,-0.3v-2.4C16,10.134,15.866,10,15.7,10z" fill="#4EA17E"/>
    </g>
  </g>
</svg>