<svg version="1.1" id="Layer_1" xmlns="http://www.w3.org/2000/svg" xmlns:xlink="http://www.w3.org/1999/xlink" x="0px" y="0px" width="16px" height="16px" viewBox="0 0 16 16" enable-background="new 0 0 16 16" xml:space="preserve">
  <g id="main">
    <g id="icon">
      <path d="M8.618,0.1037L8.099,0.2475L7.628,0.4877L7.217,0.8129L6.877,1.212L6.62,1.672L6.457,2.183L6.4,2.733L6.428,3.118L6.508,3.487L6.638,3.834L6.812,4.157L7.28,4.712L7.566,4.937L7.882,5.122L7.968,5.201L8,5.312L8.008,5.893L7.977,5.969L7.901,6L7.075,6.008L6.657,6.092L6.315,6.323L6.085,6.664L6,7.083L5.992,8.501L5.961,8.577L5.885,8.608L5.246,8.6L5.135,8.569L5.056,8.483L4.863,8.155L4.627,7.86L4.352,7.6L4.042,7.382L3.701,7.209L3.335,7.085L2.947,7.015L2.542,7.003L2.041,7.074L1.573,7.235L1.149,7.477L0.7773,7.789L0.4674,8.163L0.2285,8.589L0.07031,9.057L0.001953,9.559L0.0373,10.12L0.1809,10.63L0.4209,11.11L0.7461,11.52L1.145,11.86L1.605,12.11L2.117,12.28L2.667,12.33L3.052,12.31L3.421,12.23L3.768,12.1L4.091,11.92L4.646,11.45L4.871,11.17L5.056,10.85L5.135,10.77L5.246,10.73L5.885,10.74L5.961,10.77L5.992,10.85L5.992,12.07L6.145,11.97L6.576,11.73L6.944,11.41L7.276,11.04L7.603,10.59L7.594,10.59L7.877,10.19L7.866,10.18L8.355,9.515L9.046,8.543L9.187,8.643L9.521,8.506L9.882,8.46L10.25,8.504L10.56,8.616L11.05,8.905L11.17,8.991L11.42,8.297L11.77,7.331L11.99,6.898L12.24,6.516L12.52,6.187L12.73,6L10.25,6L10.17,5.969L10.14,5.893L10.13,5.312L10.16,5.201L10.25,5.122L10.58,4.929L10.87,4.693L11.13,4.418L11.35,4.108L11.52,3.767L11.65,3.401L11.72,3.013L11.73,2.608L11.66,2.107L11.5,1.639L11.26,1.215L10.94,0.8434L10.57,0.5334L10.14,0.2945L9.675,0.1363L9.174,0.06797zM9.523,1.652L9.896,1.904L10.15,2.276L10.24,2.733L10.15,3.19L9.896,3.563L9.523,3.814L9.066,3.906L8.61,3.814L8.237,3.563L7.985,3.19L7.893,2.733L7.985,2.276L8.237,1.904L8.609,1.652L9.066,1.56zM3.124,8.586L3.496,8.838L3.748,9.21L3.84,9.667L3.748,10.12L3.496,10.5L3.124,10.75L2.667,10.84L2.21,10.75L1.838,10.5L1.586,10.12L1.494,9.667L1.586,9.21L1.838,8.838L2.21,8.586L2.667,8.494zM6.307,14.69L6.649,14.92L6.721,14.94L6.189,14.52zz" fill="#cfcfcf"/>
    </g>
    <g id="overlay">
      <path d="M8.988,10.3502c-0.7561,1.0627,-1.266,2.0185,-2.4411,2.5344c-1.1751,0.5159,4.4176,3.8213,5.6499,2.9782c0.5449,-0.3728,1.0801,-1.0784,1.7187,-1.976c0.0049,-0.0069,0.0095,-0.014,0.0138,-0.0213L8.988,10.3502z" fill="#EAB765"/>
      <path d="M14.4593,13.0872c0.1815,-0.3818,-0.1468,-0.62,-0.4274,-0.8275c-0.3394,-0.2511,-1.0442,-0.6716,-0.6591,-1.1544c0.5019,-0.6292,1.2432,-1.0407,1.8266,-1.583c0.596,-0.554,1.0902,-1.397,0.6078,-2.1844c-0.1532,-0.2501,-0.327,-0.4341,-0.5372,-0.5756c-0.1953,-0.1469,-0.4327,-0.256,-0.7192,-0.3187c-0.9021,-0.1975,-1.5357,0.5454,-1.8637,1.2901c-0.321,0.729,-0.4659,1.5634,-0.8957,2.2438c-0.3298,0.5221,-0.9578,-0.0083,-1.3063,-0.2466c-0.2881,-0.197,-0.6233,-0.4253,-0.9245,-0.1287c-0.0749,0.0738,-0.1676,0.1883,-0.2875,0.3516l2.474,1.7601l2.4741,1.7602C14.3364,13.3072,14.4141,13.1821,14.4593,13.0872zM14.1655,8.315c-0.2735,-0.1946,-0.3375,-0.5741,-0.1429,-0.8476c0.1946,-0.2735,0.5741,-0.3375,0.8476,-0.1429c0.2735,0.1946,0.3375,0.5741,0.1429,0.8476C14.8185,8.4456,14.439,8.5095,14.1655,8.315z" fill="#6D6E71"/>
      <rect x="8.5721" y="11.6522" width="6.0779" height="0.5065" fill="#E6E7E8" transform="matrix(0.8148 0.5797 -0.5797 0.8148 9.05164 -4.52638)"/>
    </g>
  </g>
</svg>