<?xml version="1.0" encoding="UTF-8"?>
<!DOCTYPE svg PUBLIC "-//W3C//DTD SVG 1.1//EN" "http://www.w3.org/Graphics/SVG/1.1/DTD/svg11.dtd">
<svg version="1.1" id="Layer_1" xmlns="http://www.w3.org/2000/svg" xmlns:xlink="http://www.w3.org/1999/xlink" x="0px" y="0px" width="16px" height="16px" viewBox="0 0 16 16" enable-background="new 0 0 16 16" xml:space="preserve">
  <g id="main">
    <g id="icon">
      <path d="M8.618,0.1037L8.099,0.2475L7.628,0.4877L7.217,0.8129L6.877,1.212L6.62,1.672L6.457,2.183L6.4,2.733L6.428,3.118L6.508,3.487L6.638,3.834L6.812,4.157L7.28,4.712L7.566,4.937L7.882,5.122L7.968,5.201L8,5.312L8.008,5.893L7.977,5.969L7.901,6L7.075,6.008L6.657,6.092L6.315,6.323L6.085,6.664L6,7.083L5.992,8.501L5.961,8.577L5.885,8.608L5.246,8.6L5.135,8.569L5.056,8.483L4.863,8.155L4.627,7.86L4.352,7.6L4.042,7.382L3.701,7.209L3.335,7.085L2.947,7.015L2.542,7.003L2.041,7.074L1.573,7.235L1.149,7.477L0.7773,7.789L0.4674,8.163L0.2285,8.589L0.07031,9.057L0.001953,9.559L0.0373,10.12L0.1809,10.63L0.4209,11.11L0.7461,11.52L1.145,11.86L1.605,12.11L2.117,12.28L2.667,12.33L3.052,12.31L3.421,12.23L3.768,12.1L4.091,11.92L4.646,11.45L4.871,11.17L5.056,10.85L5.135,10.77L5.246,10.73L5.885,10.74L5.961,10.77L5.992,10.85L5.992,13.93L6.077,14.35L6.307,14.69L6.649,14.92L7.068,15.01L11,15L11,13.58L10.9,13.68L10.54,13.92L10.12,14L10.12,14L9.685,13.91L9.33,13.67L9.09,13.32L9.001,12.89L9,10.95L9.088,10.48L9.343,10.08L9.359,10.07L9.376,10.05L12.14,7.355L12.53,7.092L12.99,7L13.45,7.09L13.83,7.347L15.01,8.497L15.01,7.076L14.92,6.657L14.69,6.315L14.35,6.085L13.93,6L10.25,6L10.17,5.969L10.14,5.893L10.13,5.312L10.16,5.201L10.25,5.122L10.58,4.929L10.87,4.693L11.13,4.418L11.35,4.108L11.52,3.767L11.65,3.401L11.72,3.013L11.73,2.608L11.66,2.107L11.5,1.639L11.26,1.215L10.94,0.8434L10.57,0.5334L10.14,0.2945L9.675,0.1363L9.174,0.06797zM9.523,1.652L9.896,1.904L10.15,2.276L10.24,2.733L10.15,3.19L9.896,3.562L9.523,3.814L9.066,3.906L8.61,3.814L8.237,3.563L7.985,3.19L7.893,2.733L7.985,2.276L8.237,1.904L8.609,1.652L9.066,1.56zM3.124,8.586L3.496,8.838L3.748,9.21L3.84,9.667L3.748,10.12L3.496,10.5L3.124,10.75L2.667,10.84L2.21,10.75L1.838,10.5L1.586,10.12L1.494,9.667L1.586,9.21L1.838,8.838L2.21,8.586L2.667,8.494zz" fill="#cfcfcf"/>
    </g>
    <g id="overlay">
      <path d="M10.0699,10.7712c-0.0451,0.0478,-0.0701,0.111,-0.0699,0.1767l0.0006,1.9354c0.0003,0.1039,0.1259,0.1557,0.1994,0.0823l1.8,-1.7219v4.4913c0,0.1416,0.0833,0.265,0.2249,0.265h0.5601h0.502h0.4391c0.1416,0,0.2563,-0.1148,0.2563,-0.2563v-4.4913l1.8185,1.7304c0.0737,0.0732,0.1991,0.0209,0.1991,-0.0829v-1.9222c0,-0.0662,-0.0256,-0.1299,-0.0715,-0.1776c0,0,-2.0193,-1.9735,-2.7965,-2.7414c-0.0795,-0.0786,-0.204,-0.078,-0.2828,0.0013C12.0873,8.8265,10.0699,10.7712,10.0699,10.7712z" fill-rule="evenodd" fill="#3E79B4"/>
    </g>
  </g>
</svg>