<svg version="1.1" id="Layer_1" xmlns="http://www.w3.org/2000/svg" xmlns:xlink="http://www.w3.org/1999/xlink" x="0px" y="0px" width="32px" height="32px" viewBox="0 0 32 32" enable-background="new 0 0 32 32" xml:space="preserve">
  <g id="main">
    <g id="icon">
      <path d="M16.67,1.01L16.16,1.07L15.66,1.181L15.19,1.339L14.3,1.789L13.53,2.399L12.89,3.146L12.41,4.01L12.24,4.479L12.11,4.969L12.03,5.476L12,6L12.05,6.723L12.2,7.413L12.45,8.065L12.77,8.67L13.18,9.221L13.65,9.711L14.19,10.13L14.78,10.48L14.94,10.63L15,10.84L15,11.8L14.94,11.94L14.8,12L13.02,12L12.61,12.04L12.23,12.16L11.89,12.34L11.59,12.59L11.34,12.89L11.16,13.23L11.04,13.61L11,14.02L11,16.8L10.94,16.94L10.8,17L9.837,17L9.628,16.94L9.481,16.78L9.119,16.17L8.676,15.61L8.16,15.12L7.579,14.72L6.941,14.39L6.254,14.16L5.527,14.03L4.767,14.01L3.827,14.14L2.951,14.44L2.155,14.89L1.458,15.48L0.877,16.18L0.4291,16.98L0.1324,17.86L0.003906,18.8L0.01035,19.33L0.07012,19.84L0.1807,20.34L0.3391,20.81L0.7893,21.7L1.399,22.47L2.146,23.11L3.01,23.59L3.479,23.76L3.969,23.89L4.476,23.97L5,24L5.723,23.95L6.413,23.8L7.065,23.55L7.67,23.23L8.221,22.82L8.711,22.35L9.133,21.81L9.48,21.22L9.627,21.06L9.837,21L10.8,21L10.94,21.06L11,21.2L11,26.98L11.04,27.39L11.16,27.77L11.34,28.11L11.59,28.41L11.89,28.66L12.23,28.84L12.61,28.96L13.02,29L16.41,29L16.04,28.61L15.71,28.12L15.52,27.64L15.5,27.15L15.64,26.71L15.92,26.34L16.34,26.08L16.81,25.84L17.23,25.56L17.97,24.89L18.62,24.09L19.27,23.17L19.26,23.16L19.72,22.52L19.71,22.52L20.13,21.94L20.89,20.87L20.97,20.93L21.23,20.74L21.5,20.61L21.79,20.53L22.09,20.5L22.55,20.56L22.96,20.71L23.62,21.11L23.82,21.24L24.41,21.62L24.8,20.77L25.13,19.82L25.38,19.08L25.67,18.33L25.98,17.72L26.33,17.18L26.72,16.71L27.14,16.32L27.6,16.02L28.08,15.79L28.58,15.66L29.11,15.61L29.79,15.69L30,15.75L30,14.02L29.96,13.61L29.84,13.23L29.66,12.89L29.41,12.59L29.11,12.34L28.77,12.16L28.39,12.04L27.98,12L19.2,12L19.06,11.94L19,11.8L19,10.84L19.06,10.63L19.22,10.48L19.83,10.12L20.39,9.676L20.88,9.16L21.28,8.579L21.61,7.941L21.84,7.254L21.97,6.527L21.99,5.767L21.86,4.827L21.56,3.951L21.11,3.155L20.52,2.458L19.82,1.877L19.02,1.429L18.14,1.132L17.2,1.004zM17.44,3.845L17.86,3.973L18.23,4.176L18.56,4.444L18.82,4.77L19.03,5.144L19.16,5.557L19.2,6L19.16,6.443L19.03,6.856L18.82,7.23L18.56,7.556L18.23,7.824L17.86,8.027L17.44,8.155L17,8.2L16.56,8.155L16.14,8.027L15.77,7.824L15.44,7.556L15.18,7.23L14.97,6.856L14.84,6.443L14.8,6L14.84,5.557L14.97,5.144L15.18,4.77L15.44,4.444L15.77,4.176L16.14,3.973L16.56,3.845L17,3.8zM5.443,16.84L5.856,16.97L6.23,17.18L6.556,17.44L6.824,17.77L7.027,18.14L7.155,18.56L7.2,19L7.155,19.44L7.027,19.86L6.824,20.23L6.556,20.56L6.23,20.82L5.856,21.03L5.443,21.16L5,21.2L4.557,21.16L4.144,21.03L3.77,20.82L3.444,20.56L3.176,20.23L2.973,19.86L2.845,19.44L2.8,19L2.845,18.56L2.973,18.14L3.176,17.77L3.444,17.44L3.77,17.18L4.144,16.97L4.557,16.84L5,16.8zz" fill="#cfcfcf"/>
    </g>
    <g id="overlay">
      <path d="M20.6576,22.9259c-1.2121,1.7037,-2.0295,3.2359,-3.9134,4.063c-1.8839,0.8271,7.082,6.1261,9.0575,4.7745c0.8736,-0.5977,1.7315,-1.7287,2.7553,-3.1678c0.0079,-0.0111,0.0152,-0.0225,0.0221,-0.0341L20.6576,22.9259z" fill="#EAB765"/>
      <path d="M29.4288,27.3137c0.2909,-0.6121,-0.2353,-0.9939,-0.6851,-1.3267c-0.5441,-0.4025,-1.674,-1.0767,-1.0566,-1.8507c0.8047,-1.0087,1.9931,-1.6684,2.9284,-2.5378c0.9555,-0.8882,1.7478,-2.2395,0.9744,-3.5019c-0.2456,-0.4009,-0.5242,-0.696,-0.8611,-0.9228c-0.313,-0.2356,-0.6937,-0.4104,-1.1529,-0.5109c-1.4461,-0.3167,-2.462,0.8743,-2.9878,2.0682c-0.5146,1.1686,-0.747,2.5063,-1.436,3.5972c-0.5287,0.837,-1.5355,-0.0133,-2.0941,-0.3954c-0.4619,-0.3159,-0.9993,-0.6818,-1.4821,-0.2063c-0.1201,0.1183,-0.2686,0.3018,-0.4609,0.5637l3.9662,2.8217l3.9663,2.8218C29.2318,27.6665,29.3564,27.466,29.4288,27.3137zM28.9578,19.6632c-0.4385,-0.312,-0.5411,-0.9203,-0.2291,-1.3588c0.312,-0.4385,0.9203,-0.5411,1.3588,-0.2291c0.4385,0.312,0.5411,0.9203,0.2291,1.3588C30.0046,19.8725,29.3963,19.9751,28.9578,19.6632z" fill="#6D6E71"/>
      <rect x="19.9908" y="25.0133" width="9.7437" height="0.812" fill="#E6E7E8" transform="matrix(0.8148 0.5797 -0.5797 0.8148 19.3394 -9.70599)"/>
    </g>
  </g>
</svg>
